<svg width="48" height="12" viewBox="84.5 85.5 48 12" fill="none" xmlns="http://www.w3.org/2000/svg">
<path d="M115.356 90.1028V93.5949H111.818C111.464 93.5949 111.198 93.333 111.198 92.9838V90.1028C111.198 89.7536 111.464 89.4917 111.818 89.4917H114.649C115.091 89.4044 115.356 89.7536 115.356 90.1028Z" fill="white"/>
<path d="M131.812 91.5001H130.042C130.042 89.4049 128.361 87.7461 126.238 87.7461C124.557 87.7461 123.142 88.7937 122.611 90.3652C122.523 90.7144 122.434 91.1509 122.434 91.5001V97H122.345C121.372 97 120.665 96.2143 120.665 95.3413V91.5001C120.665 90.016 121.284 88.5318 122.434 87.4842C123.496 86.5239 124.823 86.0001 126.238 86.0001C129.334 86.0001 131.812 88.4446 131.812 91.5001Z" fill="white"/>
<path d="M131.812 97.0001H129.335L128.715 96.3891L127.389 95.0795L125.531 93.2462H128.008L131.812 97.0001Z" fill="white"/>
<path d="M115.975 95.254H110.667C110.048 95.254 109.517 94.7302 109.517 94.1191V88.8811C109.517 88.2699 110.048 87.7461 110.667 87.7461H115.975C116.595 87.7461 117.125 88.2699 117.125 88.8811V94.1191L118.895 95.8651V87.6589C118.895 86.6985 118.098 86.0001 117.214 86.0001H109.517C108.544 86.0001 107.836 86.7858 107.836 87.6589V95.254C107.836 96.2143 108.632 96.9127 109.517 96.9127H117.745L115.975 95.254Z" fill="white"/>
<path d="M94.477 97H91.9996L86.8682 91.8493V97H84.8336V86.0001H86.8682V90.889L91.823 86.0001H94.2113L88.9034 91.2382L94.477 97Z" fill="white"/>
<path d="M103.766 86.0001H105.712V97H103.766V92.1985H98.1035V97H96.0689V86.0001H98.1035V90.6271H103.766V86.0001Z" fill="white"/>
</svg>
